# xmcd
#
# Track frame offsets:
#	150
#	14675
#	31649
#	48247
#	70544
#	86042
#	103895
#	123546
#
# Disc length: 1996 seconds
#
# Revision: 1
# Processed by: cddbd v1.5.2PL0 Copyright (c) Steve Scherf et al.
# Submitted via: audiograbber 1.83.01
#
DISCID=6207ca08
DTITLE=Superscar - Neon lights [CDM)
DYEAR=2012
DGENRE=Pop
TTITLE0=Neon Lights
TTITLE1=Modern Word For Love
TTITLE2=Special
TTITLE3=Neon Lights (Lovetone Remix)
TTITLE4=Neon Lights (Lovetone Remix Radio Edit)
TTITLE5=Neon Lights (Yves Ivory Remix)
TTITLE6=Neon Lights (Sunset Remix By Kristian)
TTITLE7=Modern Word For Love (Sami Saari Remix)
EXTD=TR.
EXTT0=
EXTT1=
EXTT2=
EXTT3=
EXTT4=
EXTT5=
EXTT6=
EXTT7=
PLAYORDER=
